<svg width="17" height="13" viewBox="0 0 17 13" fill="none" xmlns="http://www.w3.org/2000/svg">
<path d="M16.2188 2.34375V10.6563C16.2188 11.1287 16.0311 11.5817 15.697 11.9158C15.363 12.2498 14.9099 12.4375 14.4375 12.4375H2.5625C2.09008 12.4375 1.63702 12.2498 1.30297 11.9158C0.968917 11.5817 0.78125 11.1287 0.78125 10.6563V2.34375M16.2188 2.34375C16.2188 1.87133 16.0311 1.41827 15.697 1.08422C15.363 0.750167 14.9099 0.5625 14.4375 0.5625H2.5625C2.09008 0.5625 1.63702 0.750167 1.30297 1.08422C0.968917 1.41827 0.78125 1.87133 0.78125 2.34375M16.2188 2.34375V2.53613C16.2188 2.84024 16.141 3.1393 15.9927 3.40482C15.8444 3.67033 15.6306 3.89347 15.3717 4.05296L9.43417 7.7065C9.15329 7.87951 8.82988 7.97111 8.5 7.97111C8.17012 7.97111 7.84671 7.87951 7.56583 7.7065L1.62833 4.05375C1.3694 3.89426 1.1556 3.67113 1.00733 3.40561C0.859046 3.14009 0.781216 2.84103 0.78125 2.53692V2.34375" stroke="black" stroke-opacity="0.9" stroke-linecap="round" stroke-linejoin="round"/>
</svg>
