<svg width="17" height="15" viewBox="0 0 17 15" fill="none" xmlns="http://www.w3.org/2000/svg">
<path d="M2.81918 4.82462C2.15651 5.60675 1.66305 6.51768 1.36993 7.5C2.2851 10.5727 5.13118 12.8125 8.50002 12.8125C9.20339 12.8125 9.88339 12.7147 10.528 12.5327M4.41152 3.4115C5.62462 2.61095 7.04657 2.18525 8.50002 2.1875C11.8689 2.1875 14.7142 4.42725 15.6294 7.49858C15.1278 9.17684 14.0512 10.6248 12.5885 11.5885M4.41152 3.4115L2.12502 1.125M4.41152 3.4115L6.99693 5.99692M12.5885 11.5885L14.875 13.875M12.5885 11.5885L10.0031 9.00308C10.2004 8.80574 10.357 8.57146 10.4638 8.31362C10.5706 8.05579 10.6256 7.77944 10.6256 7.50035C10.6256 7.22127 10.5706 6.94492 10.4638 6.68708C10.357 6.42924 10.2004 6.19497 10.0031 5.99762C9.80576 5.80028 9.57148 5.64374 9.31364 5.53694C9.0558 5.43014 8.77945 5.37517 8.50037 5.37517C8.22129 5.37517 7.94494 5.43014 7.6871 5.53694C7.42926 5.64374 7.19498 5.80028 6.99764 5.99762M10.0024 9.00237L6.99835 5.99833" stroke="black" stroke-linecap="round" stroke-linejoin="round"/>
</svg>
