<svg width="18" height="18" viewBox="0 0 18 18" fill="none" xmlns="http://www.w3.org/2000/svg">
<path d="M12.125 3.375C12.788 3.375 13.4239 3.63839 13.8928 4.10723C14.3616 4.57607 14.625 5.21195 14.625 5.875M17.125 5.875C17.1251 6.60426 16.9657 7.32472 16.6579 7.98585C16.3502 8.64699 15.9015 9.23281 15.3434 9.70222C14.7853 10.1716 14.1313 10.5133 13.4272 10.7032C12.7231 10.8931 11.986 10.9267 11.2675 10.8017C10.7983 10.7208 10.3017 10.8233 9.965 11.16L7.75 13.375H5.875V15.25H4V17.125H0.875V14.7767C0.875 14.2792 1.0725 13.8017 1.42417 13.4508L6.84 8.035C7.17667 7.69833 7.27917 7.20166 7.19833 6.7325C7.08016 6.05013 7.10503 5.35067 7.27136 4.67842C7.43768 4.00617 7.74184 3.3758 8.16456 2.82727C8.58728 2.27873 9.11934 1.82399 9.72702 1.49186C10.3347 1.15973 11.0047 0.957455 11.6947 0.897855C12.3846 0.838255 13.0794 0.922629 13.7351 1.14563C14.3907 1.36863 14.9929 1.7254 15.5034 2.19331C16.0139 2.66123 16.4217 3.2301 16.7008 3.86387C16.98 4.49763 17.1244 5.18248 17.125 5.875Z" stroke="black" stroke-linecap="round" stroke-linejoin="round"/>
</svg>
